<svg width="87" height="88" viewBox="0 0 87 88" fill="none" xmlns="http://www.w3.org/2000/svg">
<g filter="url(#filter0_d_78_7487)">
<path d="M41.7162 25.1148C42.8199 24.5173 44.1798 24.5173 45.2835 25.1148L57.5495 31.7548C58.6532 32.3523 59.3332 33.4566 59.3332 34.6516V47.9317C59.3332 49.1267 58.6532 50.2309 57.5495 50.8284L45.2835 57.4685C44.1798 58.066 42.8199 58.066 41.7162 57.4685L29.4502 50.8284C28.3464 50.2309 27.6665 49.1267 27.6665 47.9317V34.6516C27.6665 33.4566 28.3464 32.3523 29.4502 31.7548L41.7162 25.1148Z" fill="url(#paint0_radial_78_7487)"/>
<path d="M57.9264 31.0586L45.6604 24.4186C44.3215 23.6938 42.6782 23.6938 41.3393 24.4186L29.0733 31.0586C27.73 31.7858 26.8748 33.1482 26.8748 34.6516V47.9317C26.8748 49.435 27.73 50.7974 29.0733 51.5246L41.3393 58.1647C42.6782 58.8895 44.3215 58.8895 45.6604 58.1647L57.9264 51.5246C59.2697 50.7974 60.1248 49.435 60.1248 47.9317V34.6516C60.1248 33.1482 59.2697 31.7858 57.9264 31.0586Z" stroke="#0EA5E9" stroke-width="1.58333"/>
</g>
<defs>
<filter id="filter0_d_78_7487" x="0.749676" y="0.916586" width="85.5002" height="87.0834" filterUnits="userSpaceOnUse" color-interpolation-filters="sRGB">
<feFlood flood-opacity="0" result="BackgroundImageFix"/>
<feColorMatrix in="SourceAlpha" type="matrix" values="0 0 0 0 0 0 0 0 0 0 0 0 0 0 0 0 0 0 127 0" result="hardAlpha"/>
<feOffset dy="3.16667"/>
<feGaussianBlur stdDeviation="12.6667"/>
<feComposite in2="hardAlpha" operator="out"/>
<feColorMatrix type="matrix" values="0 0 0 0 0.341176 0 0 0 0 0.27451 0 0 0 0 0.956863 0 0 0 0.5 0"/>
<feBlend mode="normal" in2="BackgroundImageFix" result="effect1_dropShadow_78_7487"/>
<feBlend mode="normal" in="SourceGraphic" in2="effect1_dropShadow_78_7487" result="shape"/>
</filter>
<radialGradient id="paint0_radial_78_7487" cx="0" cy="0" r="1" gradientUnits="userSpaceOnUse" gradientTransform="translate(43.4998 41.2916) rotate(90) scale(16.625 15.8333)">
<stop/>
<stop offset="1" stop-color="#222023"/>
</radialGradient>
</defs>
</svg>
